<svg id="Layer_1" data-name="Layer 1" xmlns="http://www.w3.org/2000/svg" viewBox="0 0 681 90.8"><title>Skoda logo - Brandlogos.net</title><path d="M43.5,429.4l12.62-19.22h73.17c4.15,0,6.85-2.58,6.85-6.52V392.5H73.24c-18.74,0-27-7.9-27-25.4v-7.55c0-13,8.11-20.94,20.91-20.94h1.44v28.15c0,3.95,2.7,6.52,6.85,6.52h60.92c13.88,0,22.17,7.9,22.17,20.77v10c0,17-8.83,25.4-27,25.4ZM482,409.83h56.59c9.37,0,15.32-5.49,15.32-14.08V372.24c0-8.58-5.95-14.08-15.32-14.08H482ZM459.27,429.4V338.6h79.84c23.79,0,37.49,13,37.49,34.67v21.46c0,21.63-13.7,34.67-37.49,34.67Zm-110-19.57H397c8.65,0,14.24-5.15,14.24-13.22V371.38c0-8.07-5.59-13.22-14.24-13.22H349.22c-8.65,0-14.24,5.15-14.24,13.22v25.23C335,404.68,340.57,409.83,349.22,409.83Zm48.3,19.57H348.68c-23.07,0-36.41-12.7-36.41-33.81V372.41c0-21.11,13.34-33.81,36.41-33.81h48.84c23.07,0,36.41,12.7,36.41,33.81v23.17C433.93,416.7,420.59,429.4,397.52,429.4Zm188.38,0,53.53-90.8H671l53.53,90.8h-26l-9.19-15.62h-45.6L631.5,395.24,611.32,429.4ZM632,394.21h45.78l-22.89-38.62ZM90.9,357.48l-13-18.88h78.4l-12.62,18.88Zm92.57,71.92V338.6h22.71V374h30.1l39.11-35.36h30.1l-49.74,45.14,50.64,45.66h-31.9l-39.11-35.87h-29.2V429.4Z" transform="translate(-43.5 -338.6)" style="fill:#0e3a2f"/></svg>